<?xml version="1.0" encoding="utf-8"?>
<!-- Generator: Adobe Illustrator 24.3.0, SVG Export Plug-In . SVG Version: 6.00 Build 0)  -->
<svg version="1.1" id="Layer_1" xmlns="http://www.w3.org/2000/svg" xmlns:xlink="http://www.w3.org/1999/xlink" x="0px" y="0px"
	 viewBox="0 0 147 30" style="enable-background:new 0 0 147 30;" xml:space="preserve">
<style type="text/css">
	.st0{fill:#390A5D;}
	.st1{fill:#FFFFFF;}
</style>
<g>
	<g>
		<g>
			<g>
				<path class="st0" d="M16,2.1h10.6v10.6h-1.8c-4.9,0-8.8-3.9-8.8-8.8V2.1z"/>
			</g>
			<g>
				<path class="st1" d="M1.2,17.3h10.6v10.6H10c-4.9,0-8.8-3.9-8.8-8.8V17.3z"/>
			</g>
			<g>
				<path class="st0" d="M16,27.9h7.3c1.8,0,3.3-1.5,3.3-3.3v-7.3h-5.5c-2.9,0-5.2,2.3-5.2,5.2V27.9z"/>
			</g>
			<g>
				<path class="st0" d="M11.9,2.1H4.9c-2,0-3.7,1.7-3.7,3.7v6.9h5c3.1,0,5.6-2.5,5.6-5.6V2.1z"/>
			</g>
		</g>
	</g>
	<g>
		<g>
			<g>
				<g>
					<g>
						<path class="st1" d="M50.3,12v15.8h-2.4l-8.7-10.7v10.7h-2.9V12h2.4l8.7,10.7V12H50.3z"/>
					</g>
				</g>
				<g>
					<g>
						<path class="st1" d="M65.5,22.7h-9.4c0.3,1.8,1.8,2.9,3.9,2.9c1.4,0,2.4-0.4,3.3-1.3l1.5,1.7c-1.1,1.3-2.8,2-4.8,2
							c-4,0-6.7-2.6-6.7-6.2c0-3.6,2.6-6.2,6.2-6.2c3.5,0,6.1,2.5,6.1,6.2C65.6,22,65.6,22.4,65.5,22.7z M56.1,20.8h6.8
							c-0.2-1.7-1.6-2.9-3.4-2.9C57.7,17.9,56.3,19,56.1,20.8z"/>
					</g>
				</g>
				<g>
					<g>
						<path class="st1" d="M75,27.1c-0.7,0.5-1.7,0.8-2.7,0.8c-2.6,0-4.1-1.4-4.1-4.1v-5.8v-2.3v-2.8H71v2.8h3.2v2.3H71v5.7
							c0,1.2,0.6,1.8,1.7,1.8c0.6,0,1.1-0.2,1.6-0.5L75,27.1z"/>
					</g>
				</g>
				<g>
					<g>
						<path class="st1" d="M87.9,24.1H80l-1.6,3.7h-3L82.5,12h2.9l7.1,15.8h-3.1L87.9,24.1z M86.9,21.8l-3-6.9l-3,6.9H86.9z"/>
					</g>
				</g>
				<g>
					<g>
						<path class="st1" d="M114.4,20.9v6.9h-2.8v-6.5c0-2.1-1-3.2-2.7-3.2c-1.8,0-3.1,1.2-3.1,3.6v6.1h-2.8v-6.5
							c0-2.1-1-3.2-2.7-3.2c-1.9,0-3.1,1.2-3.1,3.6v6.1h-2.8v-12h2.7v1.5c0.9-1.1,2.3-1.7,3.9-1.7c1.8,0,3.2,0.7,4.1,2
							c1-1.2,2.6-2,4.5-2C112.4,15.6,114.4,17.2,114.4,20.9z"/>
					</g>
				</g>
				<g>
					<g>
						<path class="st1" d="M130.3,21.8c0,3.7-2.6,6.2-6.1,6.2c-1.6,0-3-0.6-4-1.7v1.6h-2.7V11h2.8v6.2c1-1.1,2.3-1.6,3.9-1.6
							C127.7,15.6,130.3,18,130.3,21.8z M127.4,21.8c0-2.3-1.5-3.8-3.6-3.8c-2,0-3.6,1.5-3.6,3.8c0,2.3,1.6,3.8,3.6,3.8
							C125.9,25.5,127.4,24.1,127.4,21.8z"/>
					</g>
				</g>
				<g>
					<g>
						<path class="st1" d="M133,15.7h2.8v12H133V15.7z"/>
					</g>
				</g>
				<g>
					<g>
						<path class="st1" d="M145.8,27.1c-0.7,0.5-1.7,0.8-2.7,0.8c-2.6,0-4.1-1.4-4.1-4.1v-5.8v-2.3v-2.8h2.8v2.8h3.2v2.3h-3.2v5.7
							c0,1.2,0.6,1.8,1.7,1.8c0.6,0,1.1-0.2,1.6-0.5L145.8,27.1z"/>
					</g>
				</g>
			</g>
			<g>
				<path class="st1" d="M135.8,14.1h-1c-1,0-1.8-0.8-1.8-1.8v-1h0.5c1.3,0,2.3,1,2.3,2.3V14.1z"/>
			</g>
		</g>
	</g>
</g>
</svg>

